<svg class="icon" style="width: 1em;height: 1em;vertical-align: middle;fill: currentColor;overflow: hidden;" viewBox="0 0 1024 1024" version="1.1" xmlns="http://www.w3.org/2000/svg" p-id="11654"><path d="M136.45 0c-12.796 0-26.452 5.12-35.837 15.36-9.387 10.239-15.36 23.041-15.36 35.837v921.604c0 12.797 5.12 26.453 15.36 35.84 10.239 10.238 23.041 15.359 35.837 15.359h750.938c12.797 0 26.453-5.121 35.839-15.359 10.239-10.24 15.359-23.043 15.359-35.84V290.136L648.451 0H136.45z m0 0" fill="#60BD94" p-id="11655"></path><path d="M938.587 290.136H699.654c-12.802 0-26.453-5.12-35.839-15.365-10.244-9.385-15.364-23.037-15.364-35.838V0l290.136 290.136z m0 0" fill="#BBE0D0" p-id="11656"></path><path d="M293.308 721.467V418.928H400.73c32.941 0 58.332 6.25 76.171 18.75 17.838 12.5 26.758 29.818 26.758 51.953 0 16.406-5.535 30.794-16.602 43.164-11.068 12.373-25 20.898-41.797 25.586v0.781c21.094 2.607 38.117 10.42 51.074 23.438 12.955 13.021 19.434 29.365 19.434 49.023 0 27.475-9.766 49.316-29.297 65.527s-46.225 24.316-80.078 24.316H293.308z m64.453-254.492v74.804h30.664c14.712 0 26.3-3.516 34.766-10.547 8.462-7.031 12.695-16.861 12.695-29.492 0-23.175-16.928-34.766-50.781-34.766h-27.344z m0 123.437v83.008h38.281c16.275 0 29.004-3.775 38.183-11.328 9.18-7.549 13.77-18.033 13.77-31.445 0-12.76-4.559-22.656-13.672-29.688-9.115-7.031-22.07-10.547-38.867-10.547h-37.695zM764.207 471.663h-86.328v249.804H613.23V471.663h-86.133v-52.734h237.109v52.734z" fill="#BBE0D0" p-id="11657"></path></svg>