<svg class="icon" style="width: 1em;height: 1em;vertical-align: middle;fill: currentColor;overflow: hidden;" viewBox="0 0 1024 1024" version="1.1" xmlns="http://www.w3.org/2000/svg"><path d="M934.144 503.6544a419.2256 419.2256 0 1 0-419.2256 419.2256h270.08a22.6816 22.6816 0 0 0 22.7328-22.6816V803.84a417.792 417.792 0 0 0 126.4128-300.1856z" fill="#DB90F6"></path><path d="M514.9184 185.9584a419.2256 419.2256 0 0 0-416.0512 368.64 419.2256 419.2256 0 0 0 416.0512 368.64h270.08a22.6816 22.6816 0 0 0 22.7328-22.6816V803.84a417.9968 417.9968 0 0 0 123.2384-249.1392 419.2256 419.2256 0 0 0-416.0512-368.7424z" fill="#D186F7"></path><path d="M514.9184 287.488a419.3792 419.3792 0 0 0-406.784 317.696 419.3792 419.3792 0 0 0 406.784 317.696h270.08a22.6816 22.6816 0 0 0 22.7328-22.6816V803.84A418.816 418.816 0 0 0 921.6 605.0816a419.2768 419.2768 0 0 0-406.6816-317.5936z" fill="#C276F6"></path><path d="M514.9184 389.12a419.328 419.328 0 0 0-390.6048 266.9568 419.328 419.328 0 0 0 390.6048 266.9568h270.08a22.6816 22.6816 0 0 0 22.7328-22.6816V803.84a419.84 419.84 0 0 0 97.7408-147.6608A419.2768 419.2768 0 0 0 514.9184 389.12z" fill="#AF64F6"></path><path d="M514.9184 490.496A419.072 419.072 0 0 0 148.1216 706.56a419.1232 419.1232 0 0 0 366.7968 216.1664h270.08a22.6816 22.6816 0 0 0 22.7328-22.6816V803.84a423.3728 423.3728 0 0 0 73.984-97.28 419.072 419.072 0 0 0-366.7968-216.064z" fill="#A25BF4"></path><path d="M514.9184 679.3216a215.8592 215.8592 0 0 1-215.6032-215.6544 40.96 40.96 0 0 1 81.92 0 133.6832 133.6832 0 1 0 267.3664 0 40.96 40.96 0 0 1 81.92 0 215.8592 215.8592 0 0 1-215.6032 215.6544z" fill="#FFFFFF"></path></svg>