<svg class="icon" style="width: 1em;height: 1em;vertical-align: middle;fill: currentColor;overflow: hidden;" viewBox="0 0 1024 1024" version="1.1" xmlns="http://www.w3.org/2000/svg" p-id="20025"><path d="M512.87 465.46L856.32 267.57a116.606 116.606 0 0 0-4.198-2.662L565.043 98.202c-32.102-18.637-71.68-18.74-103.833-0.256l-288 165.222a71.501 71.501 0 0 0-4.199 2.611l343.86 199.68z" fill="#757BF2" p-id="20026"></path><path d="M559.565 943.718c1.075-0.563 2.201-1.126 3.277-1.74L850.79 776.704a103.777 103.777 0 0 0 52.122-89.805l0.82-331.98c0-1.639-0.103-3.277-0.154-4.865L559.514 548.301v395.417z m-95.13-396.39L121.242 347.955a80.847 80.847 0 0 0-0.154 5.018l-0.82 331.98a103.782 103.782 0 0 0 51.713 90.061l287.078 166.708a110.626 110.626 0 0 0 5.427 2.918V547.328z" fill="#6C6CEA" p-id="20027"></path><path d="M121.088 352.973l-0.82 331.98a103.782 103.782 0 0 0 51.713 90.061l93.184 54.119a587.264 587.264 0 0 0 199.373-3.635v-278.17L121.242 347.955a82.089 82.089 0 0 0-0.154 5.018z m438.477 445.645C719.923 738.15 846.54 608.922 903.526 446.874l0.256-91.956c0-1.638-0.05-3.276-0.153-4.864L559.565 548.301v250.317z" fill="#757BF2" p-id="20028"></path><path d="M121.088 352.973l-0.666 271.462a588.5 588.5 0 0 0 74.65 4.762c97.229 0 188.877-23.86 269.414-65.997v-15.82L121.242 347.954a82.089 82.089 0 0 0-0.154 5.018z m558.848 16.179c32.563-48.947 57.958-103.066 74.598-160.922L564.992 98.15c-32.102-18.636-71.68-18.739-103.834-0.256L173.21 263.168a71.501 71.501 0 0 0-4.199 2.611L512.82 465.46l167.117-96.307z" fill="#8486F8" p-id="20029"></path><path d="M564.992 98.15c-32.102-18.636-71.68-18.739-103.834-0.256L173.21 263.168a71.501 71.501 0 0 0-4.199 2.611l153.395 89.088A584.34 584.34 0 0 0 569.6 100.864l-4.608-2.714z" fill="#8D92F8" p-id="20030"></path></svg>