<svg class="icon" style="width: 1em;height: 1em;vertical-align: middle;fill: currentColor;overflow: hidden;" viewBox="0 0 1024 1024" version="1.1" xmlns="http://www.w3.org/2000/svg" p-id="17269"><path d="M663.466667 701.866667c-17.066667-17.066667-42.666667-17.066667-59.733334 0L554.666667 750.933333V435.2c0-23.466667-19.2-42.666667-42.666667-42.666667s-42.666667 19.2-42.666667 42.666667v313.6l-46.933333-46.933333c-17.066667-17.066667-42.666667-17.066667-59.733333 0s-17.066667 42.666667 0 59.733333l121.6 121.6c6.4 8.533333 17.066667 12.8 27.733333 12.8s21.333333-4.266667 29.866667-12.8l121.6-121.6c17.066667-14.933333 17.066667-42.666667 0-59.733333z" fill="#80B8F8" p-id="17270"></path><path d="M812.8 388.266667C793.6 241.066667 663.466667 128 512 128S230.4 241.066667 211.2 388.266667c-102.4 19.2-179.2 113.066667-172.8 221.866666 6.4 113.066667 106.666667 200.533333 219.733333 200.533334h64c8.533333 0 10.666667-8.533333 6.4-14.933334-32-32-36.266667-85.333333-6.4-119.466666 23.466667-25.6 57.6-34.133333 89.6-25.6 4.266667 2.133333 10.666667-2.133333 10.666667-8.533334v-206.933333c0-49.066667 36.266667-85.333333 89.6-85.333333s89.6 34.133333 89.6 85.333333v206.933333c0 6.4 4.266667 10.666667 10.666667 8.533334 32-8.533333 66.133333 0 89.6 25.6 29.866667 34.133333 25.6 87.466667-6.4 119.466666-6.4 6.4-2.133333 14.933333 6.4 14.933334h64c115.2 0 213.333333-87.466667 219.733333-200.533334 6.4-108.8-70.4-202.666667-172.8-221.866666z" fill="#80B8F8" p-id="17271"></path></svg>