<svg class="icon" style="width: 1em;height: 1em;vertical-align: middle;fill: currentColor;overflow: hidden;" viewBox="0 0 1024 1024" version="1.1" xmlns="http://www.w3.org/2000/svg" p-id="21015"><path d="M185.91901504 473.30106018h191.5864975A95.79324875 95.79324875 0 0 0 473.2987613 377.50781142v-191.58649748A95.79324875 95.79324875 0 0 0 377.50551254 90.12806518h-191.5864975A95.79324875 95.79324875 0 0 0 90.12576629 185.92131394v191.58649749A95.79324875 95.79324875 0 0 0 185.91901504 473.30106018zM166.7603653 185.92131394a19.15864975 19.15864975 0 0 1 19.15864974-19.15864975h191.5864975a19.15864975 19.15864975 0 0 1 19.15864975 19.15864975v191.58649749a19.15864975 19.15864975 0 0 1-19.15864975 19.15864975h-191.5864975a19.15864975 19.15864975 0 0 1-19.15864974-19.15864975zM838.07945236 90.12806518h-191.5864975A95.79324875 95.79324875 0 0 0 549.93336028 186.30448684v191.5864975a96.17642166 96.17642166 0 0 0 95.79324876 95.79324875h191.5864975a96.17642166 96.17642166 0 0 0 95.79324874-95.79324875v-191.5864975A96.17642166 96.17642166 0 0 0 838.07945236 90.12806518z m19.15864975 287.37974625a19.54182266 19.54182266 0 0 1-19.15864975 19.15864975h-191.5864975a19.15864975 19.15864975 0 0 1-19.15864975-19.15864975v-191.58649749a19.15864975 19.15864975 0 0 1 19.15864975-19.15864975h191.5864975a19.15864975 19.15864975 0 0 1 19.15864975 19.15864975zM838.07945236 549.93565918h-191.5864975a95.79324875 95.79324875 0 0 0-95.79324875 95.79324875v191.58649749a96.17642166 96.17642166 0 0 0 95.79324875 95.79324875h191.5864975a96.17642166 96.17642166 0 0 0 95.79324875-95.79324875v-191.58649749a96.17642166 96.17642166 0 0 0-95.79324875-95.79324876z m19.15864975 287.37974624a19.54182266 19.54182266 0 0 1-19.15864975 19.15864976h-191.5864975a19.15864975 19.15864975 0 0 1-19.15864975-19.15864975v-191.5864975a19.15864975 19.15864975 0 0 1 19.15864975-19.15864975h191.5864975a19.15864975 19.15864975 0 0 1 19.15864975 19.15864975zM377.50551254 549.93565918h-191.5864975A96.17642166 96.17642166 0 0 0 90.12576629 646.49525376v191.58649749A96.17642166 96.17642166 0 0 0 185.91901504 933.10865417h191.5864975a96.17642166 96.17642166 0 0 0 95.79324876-95.79324875v-191.58649749A95.79324875 95.79324875 0 0 0 377.50551254 549.93565918z m19.15864975 287.37974624a19.15864975 19.15864975 0 0 1-19.15864975 19.15864976h-191.5864975a19.54182266 19.54182266 0 0 1-19.15864974-19.15864975v-191.5864975a19.15864975 19.15864975 0 0 1 19.15864974-19.15864975h191.5864975a19.15864975 19.15864975 0 0 1 19.15864975 19.15864975z" fill="#0C90F8" p-id="21016"></path></svg>