<svg class="icon" style="width: 1em;height: 1em;vertical-align: middle;fill: currentColor;overflow: hidden;" viewBox="0 0 1024 1024" version="1.1" xmlns="http://www.w3.org/2000/svg" p-id="13929"><path d="M131.5 229.2m-5.8 0a5.8 5.8 0 1 0 11.6 0 5.8 5.8 0 1 0-11.6 0Z" fill="#4C4F54" p-id="13930"></path><path d="M131.5 195.9c-18.4 0-33.3 14.9-33.3 33.3s14.9 33.3 33.3 33.3 33.3-14.9 33.3-33.3-15-33.3-33.3-33.3z" fill="#4C4F54" p-id="13931"></path><path d="M902.1 256.7H281.9c-14.3 0-25.9-12.3-25.9-27.5s11.6-27.5 25.9-27.5h620.2c14.3 0 25.9 12.3 25.9 27.5s-11.6 27.5-25.9 27.5z" fill="#0C90F8" p-id="13932"></path><path d="M131.5 512.1m-5.8 0a5.8 5.8 0 1 0 11.6 0 5.8 5.8 0 1 0-11.6 0Z" fill="#4C4F54" p-id="13933"></path><path d="M131.5 478.9c-18.4 0-33.3 14.9-33.3 33.3s14.9 33.3 33.3 33.3 33.3-14.9 33.3-33.3c-0.1-18.4-15-33.3-33.3-33.3z" fill="#4C4F54" p-id="13934"></path><path d="M902.1 539.6H281.9c-14.3 0-25.9-12.3-25.9-27.5s11.6-27.5 25.9-27.5h620.2c14.3 0 25.9 12.3 25.9 27.5s-11.6 27.5-25.9 27.5z" fill="#0C90F8" p-id="13935"></path><path d="M131.5 795.1m-5.8 0a5.8 5.8 0 1 0 11.6 0 5.8 5.8 0 1 0-11.6 0Z" fill="#4C4F54" p-id="13936"></path><path d="M131.5 761.8c-18.4 0-33.3 14.9-33.3 33.3s14.9 33.3 33.3 33.3 33.3-14.9 33.3-33.3c-0.1-18.4-15-33.3-33.3-33.3z" fill="#4C4F54" p-id="13937"></path><path d="M902.1 822.6H281.9c-14.3 0-25.9-12.3-25.9-27.5s11.6-27.5 25.9-27.5h620.2c14.3 0 25.9 12.3 25.9 27.5s-11.6 27.5-25.9 27.5z" fill="#0C90F8" p-id="13938"></path></svg>