<svg class="icon" style="width: 1em;height: 1em;vertical-align: middle;fill: currentColor;overflow: hidden;" viewBox="0 0 1024 1024" version="1.1" xmlns="http://www.w3.org/2000/svg" p-id="41923"><path d="M905 501.3H594.2c-29.1 0-52.7-23.6-52.7-52.7V137.8c0-29.1 23.6-52.7 52.7-52.7H905c29.1 0 52.7 23.6 52.7 52.7v310.7c0 29.2-23.6 52.8-52.7 52.8z" fill="#EBECCE" p-id="41924"></path><path d="M878.1 85.1h-38c28.2 0 51.1 22.9 51.1 51.1v314c0 28.2-22.9 51.1-51.1 51.1h38c28.2 0 51.1-22.9 51.1-51.1v-314c-0.1-28.2-22.9-51.1-51.1-51.1z" fill="#ABBE9D" p-id="41925"></path><path d="M878.1 515.5h-314c-36 0-65.4-29.3-65.4-65.4v-314c0-36 29.3-65.4 65.4-65.4h314c36 0 65.4 29.3 65.4 65.4v314c-0.1 36.1-29.4 65.4-65.4 65.4z m-314-416.1c-20.3 0-36.8 16.5-36.8 36.8v314c0 20.3 16.5 36.8 36.8 36.8h314c20.3 0 36.8-16.5 36.8-36.8v-314c0-20.3-16.5-36.8-36.8-36.8h-314zM346.3 945c-0.5 0-0.9 0-1.4-0.1-75-7.4-131.5-69.9-131.5-145.3 0-7.9 6.4-14.3 14.3-14.3s14.3 6.4 14.3 14.3c0 60.7 45.5 110.9 105.8 116.9 7.8 0.8 13.6 7.8 12.8 15.6-0.8 7.4-7 12.9-14.3 12.9zM388 945.6h-8.3c-7.9 0-14.3-6.4-14.3-14.3s6.4-14.3 14.3-14.3h8.3c7.9 0 14.3 6.4 14.3 14.3s-6.5 14.3-14.3 14.3zM590.4 945.6H442.6c-7.9 0-14.3-6.4-14.3-14.3s6.4-14.3 14.3-14.3h147.8c64.8 0 117.5-52.7 117.5-117.5V649.7c0-7.9 6.4-14.3 14.3-14.3s14.3 6.4 14.3 14.3v149.9c-0.1 80.5-65.6 146-146.1 146z" fill="#533545" p-id="41926"></path><path d="M722.2 595.1c-7.9 0-14.3-6.4-14.3-14.3V419.7c0-7.9 6.4-14.3 14.3-14.3s14.3 6.4 14.3 14.3v161.2c-0.1 7.8-6.5 14.2-14.3 14.2zM835.9 515.5c-7.9 0-14.3-6.4-14.3-14.3V85.1c0-7.9 6.4-14.3 14.3-14.3s14.3 6.4 14.3 14.3v416.2c0 7.9-6.4 14.2-14.3 14.2z" fill="#533545" p-id="41927"></path><path d="M109.2 730.8c0 28.2 22.9 51.1 51.1 51.1h199.8c28.2 0 51.1-22.9 51.1-51.1V611.3h-302v119.5z" fill="#E5A42F" p-id="41928"></path><path d="M354.1 611.3v119.5c0 28.2-22.9 51.1-51.1 51.1h28.5c28.2 0 51.1-22.9 51.1-51.1V611.3h-28.5z" fill="#BF691C" p-id="41929"></path><path d="M331.5 796.2H131.8c-36 0-65.4-29.3-65.4-65.4V597h330.5v133.8c0 36-29.3 65.4-65.4 65.4zM94.9 625.5v105.2c0 20.3 16.5 36.8 36.8 36.8h199.8c20.3 0 36.8-16.5 36.8-36.8V625.5H94.9z" fill="#533545" p-id="41930"></path><path d="M360.1 258.7H160.3c-28.2 0-51.1 22.9-51.1 51.1v301.5h302V309.8c0-28.2-22.9-51.1-51.1-51.1z" fill="#EBECCE" p-id="41931"></path><path d="M331.5 258.7H303c28.2 0 51.1 22.9 51.1 51.1v301.5h28.5V309.8c0-28.2-22.8-51.1-51.1-51.1z" fill="#ABBE9D" p-id="41932"></path><path d="M396.9 625.5H66.4V309.8c0-36 29.3-65.4 65.4-65.4h199.8c36 0 65.4 29.3 65.4 65.4v315.7zM94.9 597h273.4V309.8c0-20.3-16.5-36.8-36.8-36.8H131.8c-20.3 0-36.8 16.5-36.8 36.8V597z" fill="#533545" p-id="41933"></path><path d="M167.5 697.7m-30.1 0a30.1 30.1 0 1 0 60.2 0 30.1 30.1 0 1 0-60.2 0Z" fill="#533545" p-id="41934"></path><path d="M298.2 697.7m-30.1 0a30.1 30.1 0 1 0 60.2 0 30.1 30.1 0 1 0-60.2 0Z" fill="#533545" p-id="41935"></path><path d="M185.8 527.6c-6-6-15.9-6-21.9 0l-12.4 9.6-12.2-9.5c-5.9-5.9-15.7-5.9-21.6 0-5.9 5.9-5.9 15.7 0 21.6l23.3 23.3c3.9 3.9 9.5 5.2 14.6 3.9 0.5-0.1 1-0.3 1.6-0.5 0.2-0.1 0.4-0.1 0.5-0.2 1.9-0.8 3.7-1.9 5.2-3.4l23-23c6-5.9 6-15.8-0.1-21.8z" fill="#EC5517" p-id="41936"></path><path d="M209.4 432c-7.9 0-14.3-6.4-14.3-14.3V302.8c0-7.9 6.4-14.3 14.3-14.3s14.3 6.4 14.3 14.3v114.9c0 7.9-6.4 14.3-14.3 14.3zM326.8 427.4h-76.2c-7.9 0-14.3-6.4-14.3-14.3v-56.5c0-7.9 6.4-14.3 14.3-14.3h61.8V321h-61.8c-7.9 0-14.3-6.4-14.3-14.3s6.4-14.3 14.3-14.3h76.1c7.9 0 14.3 6.4 14.3 14.3v49.9c0 7.9-6.4 14.3-14.3 14.3h-61.8v28h61.9c7.9 0 14.3 6.4 14.3 14.3s-6.4 14.2-14.3 14.2zM326.8 582.3c-7.9 0-14.3-6.4-14.3-14.3v-85.2h-61.9c-7.9 0-14.3-6.4-14.3-14.3s6.4-14.3 14.3-14.3h76.2c7.9 0 14.3 6.4 14.3 14.3V568c0 7.9-6.4 14.3-14.3 14.3z" fill="#533545" p-id="41937"></path></svg>