<svg class="icon" style="width: 1em;height: 1em;vertical-align: middle;fill: currentColor;overflow: hidden;" viewBox="0 0 1024 1024" version="1.1" xmlns="http://www.w3.org/2000/svg" p-id="44302"><path d="M787.3792 34.3296c-82.688 83.4048-220.3136 286.1824-220.3136 407.2448 0 121.088 98.6368 219.2128 220.3136 219.2128 121.7024 0 220.3136-98.1248 220.3136-219.2128 0-121.0624-134.3232-321.6128-220.3136-407.2448zM523.0336 445.2608c0-51.6352 21.0944-115.7888 52.5056-181.2992-65.7408-104.3968-140.6976-199.4496-201.1648-259.584C240.0512 140.0832 16.4352 469.4528 16.4352 666.2144s160.2048 356.352 357.9392 356.352c185.472 0 338.048-140.4672 356.096-320.4096-118.6304-25.8816-207.4368-131.0208-207.4368-256.8704z m2.816 212.8384c0 21.0944-16.896 38.272-37.888 38.272h-60.5952v57.3952c0 21.248-16.9472 38.272-37.888 38.272h-37.9392c-20.9664 0-37.888-17.152-37.888-38.272v-57.3952h-52.992a38.144 38.144 0 0 1-37.888-38.272v-38.272c0-21.12 16.896-38.272 37.888-38.272h52.992v-57.4208c0-21.0944 16.9216-38.272 37.888-38.272h37.9136c20.864 0 37.888 17.1776 37.888 38.272v57.4208h60.6208c20.992 0 37.888 17.152 37.888 38.272v38.272z" fill="#FF377E" p-id="44303"></path></svg>