<svg viewBox="0,0,275,294" class="dark" xmlns="http://www.w3.org/2000/svg" xmlns:xlink="http://www.w3.org/1999/xlink" overflow="hidden"><defs><clipPath id="theme-dark-clip0"><rect x="525" y="230" width="275" height="294" /></clipPath><linearGradient x1="599.492" y1="203.887" x2="725.508" y2="550.113" gradientUnits="userSpaceOnUse" spreadMethod="reflect" id="theme-dark-fill1"><stop offset="0" stop-color="#2474B6" /><stop offset="0.42" stop-color="#2474B6" /><stop offset="0.98" stop-color="#FFD966" /><stop offset="1" stop-color="#FFD966" /></linearGradient></defs><g clip-path="url(#theme-dark-clip0)" transform="translate(-525 -230)"><path d="M635.002 236.062C638.664 240.491 639.245 246.694 636.469 251.721 625.869 271.094 620.334 292.809 620.372 314.869 620.372 388.255 680.469 447.679 754.537 447.679 764.199 447.679 773.604 446.675 782.643 444.759 788.307 443.538 794.156 445.809 797.493 450.526 801.036 455.459 800.803 462.148 796.925 466.824 767.803 502.434 724.103 523.073 677.976 523 593.458 523 525 455.217 525 371.701 525 308.846 563.757 254.933 618.942 232.083 624.588 229.708 631.132 231.329 635.002 236.062Z" fill="url(#theme-dark-fill1)" fill-rule="evenodd" /></g></svg>