<svg class="icon" style="width: 1em;height: 1em;vertical-align: middle;fill: currentColor;overflow: hidden;" viewBox="0 0 1024 1024" version="1.1" xmlns="http://www.w3.org/2000/svg" p-id="26615"><path d="M1008.810667 397.454222L680.305778 118.300444a261.091556 261.091556 0 0 0-336.469334 0L15.075556 397.454222a42.865778 42.865778 0 0 0 29.070222 75.377778h75.918222a16.412444 16.412444 0 0 1 16.611556 16.156444v249.827556A232.192 232.192 0 0 0 371.228444 967.111111h456.391112a37.888 37.888 0 0 0 38.229333-37.205333v-440.888889a16.412444 16.412444 0 0 1 16.611555-16.156445h97.393778a42.837333 42.837333 0 0 0 28.956445-75.377777z m-359.879111 277.617778h-106.808889v103.936a29.980444 29.980444 0 0 1-59.960889 0v-103.936h-106.808889a29.184 29.184 0 1 1 0-58.368h106.808889v-103.907556a29.980444 29.980444 0 0 1 59.960889 0v103.936h106.808889a29.184 29.184 0 1 1 0 58.368z" fill="#F1838C" p-id="26616"></path></svg>