<svg class="icon" style="width: 1em;height: 1em;vertical-align: middle;fill: currentColor;overflow: hidden;" viewBox="0 0 1024 1024" version="1.1" xmlns="http://www.w3.org/2000/svg" p-id="37979"><path d="M876.48 179.136a261.872 261.872 0 0 0-184.608-75.28h-2.944a261.872 261.872 0 0 0-182.656 76.592A268.416 268.416 0 0 0 319.36 106.48 267.44 267.44 0 0 0 135.392 564.752l14.08 12.768c1.36 1.888 2.88 3.648 4.592 5.232L488.592 910.08c6.096 6.048 14.336 9.456 22.912 9.504a32.736 32.736 0 0 0 23.248-9.824L862.08 574.88c3.52-3.616 6.208-7.968 7.856-12.752l10.48-10.144c101.408-104.224 99.648-270.768-3.92-372.848z" fill="#E44450" p-id="37980"></path><path d="M931.808 427.6l-351.552-4.256c-13.136 0-24.992 7.872-30.128 19.968l-11.12-43.536a32.736 32.736 0 0 0-19.968-21.936 32.736 32.736 0 0 0-29.792 3.6L448 409.264l-45.824-130.944a32.736 32.736 0 0 0-26.192-21.6 32.736 32.736 0 0 0-32.72 13.088l-112.944 153.536-149.6 4.256a32.752 32.752 0 1 0 1.984 65.456L248 488.8a32.736 32.736 0 0 0 25.536-13.424l86.08-117.504 39.296 112.928c3.344 9.6 10.96 17.104 20.608 20.288a32.736 32.736 0 0 0 28.8-3.92l38.64-26.192 25.856 94.928c3.68 13.776 15.872 23.568 30.112 24.224h1.648a32.736 32.736 0 0 0 30.432-20.96l27.168-70.368 329.632 4.256a32.736 32.736 0 1 0 0-65.456z" fill="#FCC661" p-id="37981"></path></svg>