<svg class="icon" style="width: 1em;height: 1em;vertical-align: middle;fill: currentColor;overflow: hidden;" viewBox="0 0 1024 1024" version="1.1" xmlns="http://www.w3.org/2000/svg" p-id="35975"><path d="M552.866 412.342c-24.827-27.662-60.312-43.546-97.342-43.546h-73.891c-37.03 0-72.517 15.884-97.358 43.546L165.251 545.057c-5.944 6.637-5.662 16.788 0.58 23.076l40.531 40.771c3.273 3.278 7.605 5.203 12.322 4.884a16.51 16.51 0 0 0 11.956-5.703l85.415-98.331v433.443c0 9.267 7.443 16.756 16.625 16.756h57.305c9.164 0 16.62-7.49 16.62-16.756V690.713h24.029v252.485c0 9.267 7.438 16.756 16.62 16.756h57.256c9.183 0 16.605-7.49 16.57-16.756V509.77l85.437 98.316a16.685 16.685 0 0 0 12.004 5.703c4.451 0.348 9.05-1.622 12.288-4.884l40.485-40.77c6.293-6.304 6.51-16.44 0.563-23.077L552.866 412.342zM852.85 65.044h-85.636c-10.29 0-18.644 8.352-18.644 18.683 0 10.291 8.338 18.66 18.644 18.66h66.976V279.45h-45.524c-10.326 0-18.642 8.372-18.642 18.681 0 10.292 8.316 18.665 18.642 18.665h45.523v177.041h-45.523c-10.326 0-18.642 8.356-18.642 18.665 0 10.31 8.316 18.677 18.642 18.677h45.523v177.028h-45.523a18.605 18.605 0 0 0-18.642 18.66c0 10.348 8.316 18.682 18.642 18.682h45.523v177.062h-66.976c-10.306 0-18.644 8.35-18.644 18.66 0 10.331 8.338 18.681 18.644 18.681h85.619c10.288 0 18.604-8.35 18.622-18.681V83.705c0-10.31-8.316-18.66-18.604-18.66zM418.594 344.597c51.278 0 93.023-42.042 93.023-93.684 0-51.643-41.745-93.666-93.023-93.666-51.294 0-93.02 42.023-93.02 93.666 0 51.657 41.726 93.684 93.02 93.684z" fill="#D4237A" p-id="35976"></path></svg>