<svg class="icon" style="width: 1em;height: 1em;vertical-align: middle;fill: currentColor;overflow: hidden;" viewBox="0 0 1024 1024" version="1.1" xmlns="http://www.w3.org/2000/svg" p-id="5754"><path d="M885.034987 692.50803c-92.246801-28.547509-149.128778-3.408658-383.474001 168.089437-127.824667 92.885925-233.066976 119.942146-323.396408 82.44691-38.560441-16.191125-62.208005-36.003948-68.173156-57.5211a46.869045 46.869045 0 0 1 0-21.304111 111.20746 111.20746 0 0 0 121.007351-15.33896l253.518924-213.041112a362.16989 362.16989 0 0 1-200.045605-200.258645l-213.041111 253.731964a112.059625 112.059625 0 0 0-11.930303 127.824667 118.87694 118.87694 0 0 0-10.865096 85.216445c11.291179 42.608222 46.656004 75.842636 105.45535 100.342364a276.953446 276.953446 0 0 0 106.520556 21.304111c85.216445 0 178.741493-37.069153 279.72298-110.781378 237.966922-173.841547 270.13613-176.611082 328.083312-158.715629 35.364825 11.078138 70.516608 33.021372 37.069154 155.09393a31.956167 31.956167 0 0 0 61.568881 16.830248c10.865097-48.573374 50.490744-193.228289-82.020828-233.919141z" fill="#FF4343" p-id="5755"></path><path d="M806.635858 531.66199L387.583991 112.610123a298.257557 298.257557 0 0 0 419.051867 419.051867zM831.561668 87.684313a298.257557 298.257557 0 0 0-398.812962-21.304111L852.865779 486.710316A298.257557 298.257557 0 0 0 831.561668 87.684313z" fill="#FF4343" p-id="5756"></path></svg>