<svg class="icon" style="width: 1em;height: 1em;vertical-align: middle;fill: currentColor;overflow: hidden;" viewBox="0 0 1024 1024" version="1.1" xmlns="http://www.w3.org/2000/svg" p-id="23553"><path d="M971.85392 486.4c-20.8 0-40-12.8-48-32s-3.2-41.6 11.2-57.6c14.4-14.4 36.8-19.2 57.6-11.2 19.2 8 32 27.2 32 48 0 28.8-24 52.8-52.8 52.8z m-115.2-241.6c-20.8 0-40-12.8-48-32s-3.2-41.6 11.2-57.6c14.4-14.4 36.8-19.2 57.6-11.2 19.2 8 32 27.2 32 48 0 30.4-24 52.8-52.8 52.8z m32 283.2c0 17.6-19.2 35.2-49.6 49.6 24 19.2 38.4 48 38.4 78.4 0 24-41.6 46.4-97.6 64l28.8-11.2-51.2-8s-9.6 1.6-25.6 4.8c36.8-9.6 59.2-24 59.2-48 1.6-19.2-6.4-38.4-20.8-51.2-17.6 4.8-36.8 9.6-54.4 14.4 19.2-4.8 36.8-9.6 54.4-14.4-11.2-9.6-22.4-17.6-36.8-22.4-9.6 3.2-30.4 6.4-57.6 11.2 17.6-3.2 36.8-6.4 54.4-12.8-32-12.8-78.4-19.2-145.6-19.2-78.4 0-126.4 17.6-155.2 36.8 28.8 1.6 67.2 3.2 121.6 3.2h-51.2c-27.2 0-51.2-1.6-72-1.6-12.8 8-25.6 20.8-33.6 33.6h1.6s6.4 1.6 17.6 3.2c-6.4-1.6-12.8-1.6-20.8-3.2-3.2 4.8-6.4 9.6-8 16 0 33.6 16 52.8 59.2 60.8L419.85392 736c-70.4-17.6-129.6-44.8-129.6-86.4 6.4-11.2 12.8-22.4 20.8-33.6-75.2-20.8-136-52.8-136-97.6 11.2-22.4 25.6-41.6 43.2-57.6-32-19.2-52.8-44.8-52.8-76.8 16-44.8 46.4-83.2 84.8-110.4-19.2-12.8-32-27.2-32-46.4 0 0 19.2-52.8 88-84.8 11.2-22.4 44.8-75.2 132.8-75.2 105.6 0 140.8 40 145.6 83.2 38.4 22.4 52.8 52.8 52.8 83.2 0 11.2-8 20.8-22.4 30.4 40 22.4 67.2 62.4 73.6 107.2 150.4 27.2 200 91.2 200 156.8zM443.85392 96c-41.6 0-65.6 14.4-80 28.8 19.2-3.2 38.4-4.8 57.6-4.8 38.4 0 78.4 3.2 116.8 12.8-8-19.2-33.6-36.8-94.4-36.8z m115.2 94.4c-6.4 3.2-12.8 6.4-20.8 9.6l12.8-8-25.6-6.4s-3.2 1.6-9.6 3.2c8-3.2 16-8 20.8-14.4-22.4-11.2-57.6-19.2-110.4-19.2-27.2 0-52.8 3.2-78.4 12.8 3.2 12.8 14.4 22.4 27.2 24l-11.2 16c-16-4.8-32-12.8-46.4-24-16 9.6-27.2 25.6-33.6 43.2 0 8 1.6 16 3.2 22.4 41.6-17.6 84.8-27.2 129.6-25.6 51.2-1.6 104 6.4 153.6 22.4 1.6-3.2 1.6-8 1.6-11.2 4.8-16-1.6-33.6-12.8-44.8z m-12.8 105.6c-8 1.6-20.8 4.8-36.8 8 11.2-1.6 24-4.8 36.8-8-17.6-6.4-33.6-11.2-51.2-12.8-12.8 1.6-25.6 1.6-40 3.2 11.2 0 24-1.6 35.2-3.2-20.8-3.2-41.6-4.8-62.4-4.8-19.2 0-38.4 1.6-56 4.8 12.8 1.6 25.6 1.6 41.6 1.6h-3.2c-14.4 0-27.2 0-41.6-1.6-16 3.2-33.6 9.6-48 17.6h1.6-1.6c-33.6 16-57.6 46.4-68.8 81.6 0 14.4 3.2 30.4 9.6 43.2 52.8-35.2 134.4-67.2 260.8-67.2 32 0 60.8 1.6 86.4 3.2-4.8-24-24-49.6-62.4-65.6z m129.6 129.6c-6.4 6.4-12.8 12.8-20.8 17.6-1.6-1.6-4.8-1.6-6.4 0h-62.4c-9.6 3.2-17.6 8-27.2 9.6 24-8 43.2-20.8 51.2-38.4-25.6-1.6-49.6-3.2-75.2-3.2-102.4 0-163.2 25.6-196.8 51.2 14.4 1.6 33.6 3.2 57.6 4.8-19.2 0-40-1.6-59.2-4.8-11.2 8-22.4 19.2-30.4 30.4 20.8 4.8 41.6 9.6 62.4 12.8-22.4-1.6-43.2-6.4-64-11.2-4.8 6.4-8 12.8-11.2 20.8 0 35.2 14.4 56 52.8 67.2 41.6-33.6 113.6-67.2 232-67.2 91.2 0 156.8 11.2 203.2 27.2 3.2-4.8 3.2-11.2 4.8-17.6-1.6-35.2-22.4-78.4-110.4-99.2z m-91.2 52.8c-19.2 6.4-38.4 12.8-57.6 17.6 19.2-4.8 38.4-11.2 57.6-17.6z m19.2-6.4c17.6-8 35.2-16 51.2-27.2 1.6 1.6-19.2 14.4-51.2 27.2z m-46.4-17.6c-25.6 8-51.2 11.2-76.8 12.8 25.6-1.6 52.8-6.4 76.8-12.8z m-76.8 12.8c-9.6 0-19.2 1.6-28.8 1.6h-57.6 11.2c27.2 0 52.8 0 75.2-1.6z m-16 40c-14.4 1.6-28.8 3.2-43.2 3.2-17.6 0-35.2-1.6-52.8-3.2 32 3.2 64 3.2 96 0z m1.6 0H464.65392h1.6z m-40-193.6c12.8 0 25.6-1.6 36.8-3.2h-4.8c-9.6 3.2-20.8 3.2-32 3.2z m-11.2 0h12.8-12.8z m94.4-9.6c-14.4 3.2-30.4 4.8-44.8 8 14.4-3.2 30.4-4.8 44.8-8z m-72-19.2h19.2-8c-4.8 1.6-8 0-11.2 0z m-40 28.8c-25.6-1.6-49.6-4.8-73.6-11.2l32 4.8c12.8 3.2 27.2 4.8 41.6 6.4z m102.4-100.8c12.8-3.2 27.2-8 40-12.8l-8 3.2c0 1.6-12.8 4.8-32 9.6z m-36.8 6.4h0c1.6 0 0 0 0 0z m36.8-6.4c-11.2 3.2-22.4 4.8-32 6.4 11.2-1.6 22.4-3.2 32-6.4z m17.6-24c-19.2 6.4-38.4 8-57.6 8 19.2 0 38.4-3.2 57.6-8z m-83.2 9.6H432.65392c-17.6 0-36.8-1.6-54.4-4.8 19.2 1.6 36.8 4.8 56 4.8z m22.4 0h-22.4H456.65392z m-6.4 22.4h-9.6c-22.4 0-44.8-3.2-67.2-9.6l22.4 4.8c17.6 3.2 35.2 6.4 54.4 4.8z m-84.8-11.2c3.2 0 4.8 0 8 1.6l-8-1.6z m108.8 534.4c-12.8-1.6-24-4.8-36.8-6.4l38.4 4.8-1.6 1.6z m8 68.8c0 25.6 11.2 40 36.8 48-6.4 6.4-11.2 14.4-14.4 22.4-52.8-14.4-96-36.8-97.6-70.4 14.4-28.8 36.8-52.8 65.6-68.8 28.8 4.8 56 6.4 84.8 8-64 19.2-75.2 60.8-75.2 60.8z m27.2 72l12.8 1.6c9.6 1.6 19.2 4.8 30.4 6.4 1.6 19.2 9.6 28.8 30.4 33.6l-12.8 14.4c-36.8-9.6-67.2-27.2-67.2-52.8 1.6-1.6 1.6-4.8 3.2-6.4 0 1.6 1.6 1.6 3.2 3.2z m132.8 46.4H640.65392c-19.2 0-38.4-1.6-57.6-4.8 19.2 3.2 40 4.8 59.2 4.8z m118.4-36.8c0-3.2 0-8-1.6-11.2 12.8-3.2 20.8-4.8 20.8-4.8l11.2-4.8c3.2-1.6 6.4-1.6 9.6-3.2 3.2 8 4.8 16 4.8 24 0 14.4-20.8 28.8-49.6 38.4l14.4-6.4-27.2-4.8s-4.8 1.6-11.2 1.6c17.6-4.8 28.8-14.4 28.8-28.8z m52.8-30.4l-17.6-3.2c-3.2-4.8-6.4-9.6-11.2-12.8 9.6-6.4 14.4-16 14.4-27.2 1.6-33.6-20.8-68.8-120-76.8 6.4-1.6 12.8-1.6 19.2-3.2 40-6.4 67.2-12.8 67.2-12.8l8-3.2c68.8 20.8 92.8 59.2 92.8 97.6 0 19.2-28.8 35.2-67.2 49.6l14.4-8z m-33.6-144l-6.4 1.6h-1.6c3.2 0 6.4 0 8-1.6z m-73.6-11.2c9.6-1.6 19.2-3.2 25.6-4.8-6.4 1.6-14.4 3.2-22.4 4.8h-3.2z m-140.8-107.2h-12.8c38.4 0 75.2-1.6 105.6-6.4-30.4 3.2-62.4 4.8-92.8 6.4z m19.2 38.4c-57.6 4.8-113.6 3.2-169.6-4.8 35.2 4.8 72 8 107.2 8 19.2 0 41.6-1.6 62.4-3.2z m0 0c40-4.8 80-11.2 118.4-17.6-38.4 6.4-78.4 12.8-118.4 17.6z m-46.4 76.8c-32 0-60.8-1.6-91.2-8 30.4 4.8 60.8 8 91.2 8z m54.4 0h19.2c11.2 0 20.8 0 32-1.6 22.4-1.6 44.8-3.2 67.2-6.4 22.4 1.6 43.2 6.4 64 12.8-24 6.4-49.6 12.8-73.6 17.6-6.4 1.6-12.8 1.6-19.2 3.2-14.4-1.6-28.8-1.6-41.6-1.6-27.2 0-52.8 3.2-78.4 11.2-25.6-1.6-51.2-3.2-76.8-8l-6.4-1.6c19.2-11.2 40-19.2 60.8-25.6H592.65392z m3.2 35.2h-36.8 36.8z m52.8 57.6c72 0 113.6 16 136 36.8-8 6.4-17.6 9.6-28.8 12.8-3.2 0-6.4 1.6-9.6 1.6-14.4-14.4-41.6-24-94.4-24-49.6 0-76.8 16-89.6 30.4-20.8-1.6-35.2-3.2-35.2-3.2-3.2 0-6.4-1.6-9.6-3.2 20.8-22.4 59.2-51.2 131.2-51.2z m-97.6 80v1.6l-30.4-4.8c-3.2-1.6-8-1.6-11.2-3.2L528.65392 864l33.6 4.8c-4.8 4.8-8 12.8-11.2 20.8z m6.4 3.2c25.6 4.8 52.8 8 78.4 6.4h-4.8c-27.2 0-52.8-3.2-80-6.4v-1.6l6.4 1.6z m201.6-9.6c-9.6 1.6-20.8 4.8-33.6 6.4 11.2-3.2 22.4-4.8 33.6-6.4 0-1.6 0 0 0 0z m-11.2-20.8c3.2 0 6.4-1.6 8-1.6 9.6-1.6 16-3.2 16-3.2l22.4 4.8 4.8 9.6-8 3.2c-9.6 3.2-20.8 6.4-32 9.6-1.6-11.2-4.8-17.6-11.2-22.4z m-80 8c27.2-1.6 54.4-4.8 80-9.6-25.6 6.4-52.8 9.6-80 9.6z m-20.8 0h20.8H647.05392z m-28.8 0c-20.8 0-38.4-1.6-54.4-1.6l1.6-1.6c16 1.6 35.2 3.2 57.6 3.2h-4.8zM595.85392 752c11.2 0 22.4-1.6 33.6-1.6h-1.6c-11.2 0-22.4 1.6-32 1.6z m84.8-9.6c-16 3.2-33.6 4.8-51.2 6.4 16-1.6 33.6-3.2 51.2-6.4zM592.65392 716.8c-20.8 0-38.4 0-52.8-1.6 30.4-8 60.8-11.2 92.8-11.2 25.6 0 49.6 1.6 75.2 3.2-20.8 3.2-41.6 4.8-62.4 6.4-19.2 3.2-35.2 3.2-52.8 3.2zM675.85392 896c16-1.6 33.6-4.8 49.6-8-16 4.8-32 6.4-49.6 8z m-4.8 1.6c-11.2 1.6-24 1.6-35.2 1.6 12.8 0 27.2-1.6 41.6-3.2-3.2 1.6-4.8 1.6-6.4 1.6z m41.6 48c14.4-3.2 28.8-6.4 41.6-11.2l-8 3.2s-12.8 3.2-33.6 8z m-38.4 6.4h3.2-3.2z m38.4-6.4c-11.2 3.2-24 4.8-35.2 6.4 11.2-3.2 24-4.8 35.2-6.4z m-40-14.4c19.2-1.6 40-3.2 59.2-8-19.2 4.8-38.4 8-59.2 8z m-6.4 0h-24H672.65392h-6.4z m-6.4 20.8h-9.6c-24 0-48-3.2-72-9.6l24 3.2c17.6 6.4 36.8 8 57.6 6.4z m-91.2-9.6c3.2 0 4.8 0 8 1.6l-8-1.6z m-147.2-208c6.4 0 9.6 1.6 14.4 1.6l-14.4-1.6z m-337.6-416c-28.8 0-52.8-24-52.8-52.8 0-28.8 24-52.8 52.8-52.8 28.8 0 52.8 24 52.8 52.8 0 14.4-4.8 27.2-16 36.8-9.6 11.2-22.4 16-36.8 16zM104.65392 528c0 20.8-12.8 40-32 48s-41.6 3.2-57.6-11.2C0.65392 550.4-4.14608 528 3.85392 507.2c8-19.2 27.2-32 48-32 30.4 0 52.8 24 52.8 52.8z m62.4 187.2c28.8 0 52.8 24 52.8 52.8 0 28.8-24 52.8-52.8 52.8-28.8 0-52.8-24-52.8-52.8 0-14.4 4.8-27.2 16-36.8 9.6-9.6 24-16 36.8-16z m147.2 136c20.8 0 40 12.8 48 32s3.2 41.6-11.2 57.6c-14.4 14.4-36.8 19.2-57.6 11.2-19.2-8-32-27.2-32-48 0-28.8 24-52.8 52.8-52.8zM962.25392 768c20.8 0 40 12.8 48 32s3.2 41.6-11.2 57.6c-14.4 14.4-36.8 19.2-57.6 11.2-19.2-8-32-27.2-32-48 0-28.8 24-52.8 52.8-52.8z m0 0" fill="#FFC233" p-id="23554"></path></svg>