<svg class="icon" style="width: 1em;height: 1em;vertical-align: middle;fill: currentColor;overflow: hidden;" viewBox="0 0 1024 1024" version="1.1" xmlns="http://www.w3.org/2000/svg" p-id="4600"><path d="M527.038393 19.307377a45.947089 45.947089 0 0 0-74.871998 0C359.696277 147.93363 128.041036 486.713423 128.041036 646.312365a361.241392 361.241392 0 0 0 361.497365 360.793441 361.049413 361.049413 0 0 0 361.497365-360.793441C851.163752 486.841409 619.50851 148.125609 527.038393 19.307377z" fill="#EF7A64" p-id="4601"></path><path d="M405.579374 852.178363c71.544354 0 135.601508-61.049475 135.601507-166.958156 0-107.060558-64.057154-168.685972-135.601507-168.685972-71.480361 0-135.537514 61.625414-135.537515 168.685972 0 105.908681 64.057154 167.02215 135.537515 167.02215z m0-54.650159c-42.811425 0-67.192819-44.795213-67.192819-112.307997 0-68.088723 24.381394-113.459874 67.192819-113.459874 42.875418 0 67.83275 45.435144 67.83275 113.459874 0 67.512785-24.957333 112.307997-67.83275 112.307997z" fill="#FFFFFF" p-id="4602"></path><path d="M708.970949 826.38912v-35.644191H618.484619a45.819103 45.819103 0 0 1 9.470988-11.198803c3.83959-3.199658 10.750851-8.383104 20.989757-15.550338l16.318256-11.518769c13.694536-9.598974 23.549483-18.366037 29.56484-26.237196 9.151022-11.774742 13.75853-25.277298 13.75853-40.507671 0-19.83788-6.527302-35.83617-19.453921-47.866884-12.990612-12.030714-30.396751-18.046071-52.346406-18.046071-27.773032 0-47.034973 10.238906-57.91381 30.716717-5.759384 10.814844-8.959043 24.957333-9.598974 42.427466h39.67576c0.447952-11.518769 1.919795-19.965866 4.479521-25.277299 4.479521-9.151022 12.926618-13.694536 25.341291-13.694536 9.087029 0 15.99829 2.879692 20.861771 8.639076 4.86348 5.759384 7.29522 12.990612 7.29522 21.693682 0 10.686858-4.223549 20.477811-12.670646 29.436854-5.567405 5.759384-17.726106 15.358359-36.476101 28.668936-21.693681 15.358359-35.388218 29.820813-41.211596 43.515349-6.015357 12.158701-9.215015 25.661257-9.598974 40.443678h142.064817z" fill="#FFFFFF" p-id="4603"></path></svg>