<svg class="icon" style="width: 1em;height: 1em;vertical-align: middle;fill: currentColor;overflow: hidden;" viewBox="0 0 1024 1024" version="1.1" xmlns="http://www.w3.org/2000/svg" p-id="11856"><path d="M357.26343585 337.84414815l-155.3445926 0c-10.72484503 0-19.41807408 8.69201541-19.41807407 19.41564682l0 116.51208533c0 10.72241778 8.69322903 19.42050133 19.41807407 19.42050133l155.3445926 0c10.72241778 0 19.41564682-8.69686992 19.41564682-19.42050133l0-116.51208533C376.67908267 346.53616355 367.98585363 337.84414815 357.26343585 337.84414815zM590.28032475 726.204416l-155.3445926 0c-10.72484503 0-19.41807408 8.69201541-19.41807407 19.41564682L415.51765808 862.13214815c0 10.72241778 8.69322903 19.42050133 19.41807407 19.42050133l155.3445926 0c10.72484503 0 19.41807408-8.69686992 19.41807407-19.42050133l0-116.51208533C609.69839882 734.89521778 601.00516978 726.204416 590.28032475 726.204416zM590.28032475 532.02488889l-155.3445926 0c-10.72484503 0-19.41807408 8.69322903-19.41807407 19.41564681l0 116.50844445c0 10.72484503 8.69322903 19.42050133 19.41807407 19.42050133l155.3445926 0c10.72484503 0 19.41807408-8.6956563 19.41807407-19.42050133l0-116.50844445C609.69839882 540.71811792 601.00516978 532.02488889 590.28032475 532.02488889zM357.26343585 532.02488889l-155.3445926 0c-10.72484503 0-19.41807408 8.69322903-19.41807407 19.41564681l0 116.50844445c0 10.72484503 8.69322903 19.42050133 19.41807407 19.42050133l155.3445926 0c10.72241778 0 19.41564682-8.6956563 19.41564682-19.42050133l0-116.50844445C376.67908267 540.71811792 367.98585363 532.02488889 357.26343585 532.02488889zM357.26343585 726.204416l-155.3445926 0c-10.72484503 0-19.41807408 8.69201541-19.41807407 19.41564682L182.50076918 862.13214815c0 10.72241778 8.69322903 19.42050133 19.41807407 19.42050133l155.3445926 0c10.72241778 0 19.41564682-8.69686992 19.41564682-19.42050133l0-116.51208533C376.67908267 734.89521778 367.98585363 726.204416 357.26343585 726.204416zM590.28032475 337.84414815l-155.3445926 0c-10.72484503 0-19.41807408 8.69201541-19.41807407 19.41564682l0 116.51208533c0 10.72241778 8.69322903 19.42050133 19.41807407 19.42050133l155.3445926 0c10.72484503 0 19.41807408-8.69686992 19.41807407-19.42050133l0-116.51208533C609.69839882 346.53616355 601.00516978 337.84414815 590.28032475 337.84414815zM1017.47795437-11.67875792l-1009.73985185 0c-10.72484503 0-19.41807408 8.69201541-19.41807407 19.41564681l0 1009.73621096c0 10.72484503 8.69322903 19.42050133 19.41807407 19.42050133l1009.73985185 0c10.72484503 0 19.41807408-8.6956563 19.41807408-19.42050133L1036.89602845 7.73688889C1036.89602845-2.98795615 1028.20279941-11.67875792 1017.47795437-11.67875792zM959.22494578 939.80080355c0 10.72241778-8.69686992 19.42050133-19.42050133 19.42050134L85.40797155 959.22130489c-10.72484503 0-19.41564682-8.69686992-19.4156468-19.42050134L65.99232475 85.40918518c0-10.72241778 8.69201541-19.41564682 19.4156468-19.41564681l854.39768653 0c10.72241778 0 19.42050133 8.69322903 19.42050133 19.41564681L959.22615941 939.80080355zM823.29478637 532.02488889l-155.34459259 0c-10.72484503 0-19.41564682 8.69322903-19.41564681 19.41564681l0 116.50844445c0 10.72484503 8.69201541 19.42050133 19.41564681 19.42050133l155.34459259 0c10.72484503 0 19.41807408-8.6956563 19.41807408-19.42050133l0-116.50844445C842.71286045 540.71811792 834.01963141 532.02488889 823.29478637 532.02488889zM590.28032475 143.66583467l-155.3445926 0c-10.72484503 0-19.41807408 8.69322903-19.41807407 19.41564681l0 116.51208534c0 10.72484503 8.69322903 19.42171497 19.41807407 19.42171496l155.3445926 0c10.72484503 0 19.41807408-8.69686992 19.41807407-19.42171496L609.69839882 163.08148148C609.69839882 152.3590637 601.00516978 143.66583467 590.28032475 143.66583467zM823.29478637 726.204416l-155.34459259 0c-10.72484503 0-19.41564682 8.69201541-19.41564681 19.41564682L648.53454697 862.13214815c0 10.72241778 8.69201541 19.42050133 19.41564681 19.42050133l155.34459259 0c10.72484503 0 19.41807408-8.69686992 19.41807408-19.42050133l0-116.51208533C842.71286045 734.89521778 834.01963141 726.204416 823.29478637 726.204416z" fill="#1296db" p-id="11857"></path></svg>