<svg class="icon" style="width: 1em;height: 1em;vertical-align: middle;fill: currentColor;overflow: hidden;" viewBox="0 0 1024 1024" version="1.1" xmlns="http://www.w3.org/2000/svg" p-id="34149"><path d="M606.72 350.72c81.92 0 148.48-66.56 148.48-148.48 0-81.92-66.56-148.48-148.48-148.48s-148.48 66.56-148.48 148.48c0 81.92 66.56 148.48 148.48 148.48zM880.64 908.8H768c2.56-2.56 5.12-5.12 5.12-7.68l-33.28-378.88c0-7.68 12.8-5.12 20.48 2.56 23.04 23.04 43.52 53.76 56.32 64 12.8 12.8 48.64 7.68 38.4-38.4-12.8-61.44-64-138.24-145.92-171.52-35.84-15.36-71.68-20.48-102.4-20.48-28.16 0-64 5.12-99.84 20.48-81.92 35.84-133.12 110.08-145.92 171.52-10.24 46.08 25.6 51.2 38.4 38.4s33.28-43.52 56.32-64c10.24-10.24 23.04-10.24 20.48-2.56l-33.28 378.88c0 2.56 2.56 5.12 5.12 7.68H250.88V588.8l23.04 23.04c5.12 5.12 15.36 10.24 23.04 10.24 7.68 0 15.36-2.56 23.04-10.24 12.8-12.8 12.8-33.28 0-43.52l-153.6-153.6c-12.8-12.8-33.28-12.8-43.52 0-12.8 12.8-12.8 33.28 0 43.52l69.12 69.12v384H143.36c-17.92 0-30.72 15.36-30.72 30.72 0 17.92 12.8 30.72 30.72 30.72h739.84c17.92 0 30.72-15.36 30.72-30.72 0-17.92-15.36-33.28-33.28-33.28zM586.24 896l5.12-189.44c0-7.68 7.68-12.8 15.36-12.8s15.36 5.12 15.36 12.8l5.12 189.44c0 5.12 5.12 10.24 12.8 12.8h-66.56c7.68-2.56 12.8-7.68 12.8-12.8z" fill="#83C628" p-id="34150"></path></svg>